# xmcd
#
# Track frame offsets:
#	150
#	12588
#	23422
#	36101
#	49532
#	62435
#	76415
#	86929
#	98841
#	109510
#	122595
#	136267
#	148975
#	163764
#	174758
#	185284
#	195901
#	208072
#	221171
#	233904
#	246869
#	260632
#	274790
#	284134
#
# Disc length: 3935 seconds
#
# Revision: 1
# Processed by: cddbd v1.5.2PL0 Copyright (c) Steve Scherf et al.
# Submitted via: audiograbber 1.83.01
#
DISCID=580f5d18
DTITLE=The Downhome Blues Sessions - Volume 1, Arkansas and Mississippi 1951 - 19
DTITLE=52
DYEAR=2003
DGENRE=Blues
TTITLE0=Drifting Slim - Down South Blues
TTITLE1=Drifting Slim - My Little Machine
TTITLE2=Junior Brooks - Lone Town Blues
TTITLE3=Junior Brooks - She's The Little Girl For Me
TTITLE4=Sunny Blair - 5 Foot 3 Blues
TTITLE5=Sunny Blair - Glad To Be Back Home
TTITLE6=Houston Boines - Going Home
TTITLE7=Houston Boines - Relation Blues
TTITLE8=Charley Booker - Rabbit Blues
TTITLE9=Charley Booker - No Ridin' Blues
TTITLE10=Charley Booker - Moonrise Blues
TTITLE11=Boyd Gilmore - Ramblin' On My Mind
TTITLE12=Boyd Gilmore - Just An Army Boy
TTITLE13=Boyd Gilmore - If That's Your Girl
TTITLE14=Boyd Gilmore - I Love My Little Woman
TTITLE15=Boyd Gilmore - Ramblin' On My Mind
TTITLE16=Boyd Gilmore - I Believe I Settle Down
TTITLE17=Boyd Gilmore - If That's Yout Girl
TTITLE18=Boyd Gilmore - Ramblin' On My Mind
TTITLE19=Elmore James - Hand In Hand
TTITLE20=Elmore James - Please Find My Baby
TTITLE21=Ernest Lane - Little Girl, Little Girl
TTITLE22=Ernest Lane - What's Wrong Baby?
TTITLE23=Red Boyd and His Orchestra - Red's Ride
EXTD=
EXTT0=
EXTT1=
EXTT2=
EXTT3=
EXTT4=
EXTT5=
EXTT6=
EXTT7=
EXTT8=
EXTT9=
EXTT10=
EXTT11=
EXTT12=
EXTT13=
EXTT14=
EXTT15=
EXTT16=
EXTT17=
EXTT18=
EXTT19=
EXTT20=
EXTT21=
EXTT22=
EXTT23=
PLAYORDER=
